Coordinates
version=1
nRows=24
nColumns=24
inDegrees=yes

Units are S.I. units (second, meters, Newtons, ...)
Angles are in degrees.

endheader
time	pelvis_tilt	pelvis_list	pelvis_rotation	pelvis_tx	pelvis_ty	pelvis_tz	hip_flexion_r	hip_adduction_r	hip_rotation_r	knee_angle_r	ankle_angle_r	subtalar_angle_r	mtp_angle_r	hip_flexion_l	hip_adduction_l	hip_rotation_l	knee_angle_l	ankle_angle_l	subtalar_angle_l	mtp_angle_l	lumbar_extension	lumbar_bending	lumbar_rotation
      1.14450000	     -3.80940171	      1.21713854	     -3.96236186	      0.22338123	      1.05927803	      0.27621011	     20.58227119	     -6.00927460	     -6.74849072	    -73.48127751	      2.35661052	     -6.26079635	      7.12035507	     17.32432248	      0.09552164	      0.93488585	    -23.91172795	     14.39512844	      5.94762561	      3.32938286	     -5.51839113	     -3.78709748	      3.20302536
      1.14866667	     -3.79775715	      1.09321369	     -4.01655549	      0.22891271	      1.06080121	      0.27633518	     21.11488096	     -5.79204315	     -6.84667229	    -73.26879749	      2.63402535	     -5.92667172	      7.09067348	     16.69317066	     -0.04839127	      0.83258689	    -23.34801923	     14.41291414	      6.05439708	      3.34852011	     -5.53726446	     -3.66821629	      3.14242645
      1.15283333	     -3.78280946	      0.95780132	     -4.06219095	      0.23442735	      1.06230187	      0.27645191	     21.62520484	     -5.56071471	     -6.95524794	    -72.98271562	      2.89838874	     -5.59679628	      7.07078009	     16.06000691	     -0.20188919	      0.73404856	    -22.78225588	     14.40376870	      6.14747284	      3.36809647	     -5.56759955	     -3.52819097	      3.07273587
      1.15700000	     -3.76800191	      0.82793950	     -4.09337150	      0.23993564	      1.06375109	      0.27654805	     22.11940200	     -5.33959561	     -7.07918087	    -72.63731489	      3.16443724	     -5.26269046	      7.05926248	     15.42964512	     -0.34373086	      0.65172186	    -22.21423737	     14.38752281	      6.23614931	      3.38950644	     -5.60032038	     -3.39281825	      2.98844552
      1.16116667	     -3.75589386	      0.70497153	     -4.11229153	      0.24544349	      1.06514000	      0.27662571	     22.60073789	     -5.13082201	     -7.21651771	    -72.23362089	      3.42974118	     -4.92913152	      7.05539925	     14.80358643	     -0.47390631	      0.58058521	    -21.64355394	     14.36119243	      6.31253926	      3.41215765	     -5.63314474	     -3.26200431	      2.89248711
      1.16533333	     -3.75690711	      0.56486444	     -4.11839607	      0.25093964	      1.06646748	      0.27669064	     23.07514149	     -4.90071193	     -7.36557285	    -71.76036774	      3.67241080	     -4.63184571	      7.05959598	     14.19974852	     -0.62141954	      0.51994629	    -21.08447443	     14.31783699	      6.38952267	      3.42864747	     -5.65630046	     -3.11213255	      2.80690917
      1.16950000	     -3.74373546	      0.43925382	     -4.10699129	      0.25644314	      1.06777036	      0.27671074	     23.51506434	     -4.70064793	     -7.53471863	    -71.22798000	      3.92902277	     -4.32442080	      7.06871726	     13.58227434	     -0.74533495	      0.47547105	    -20.52015568	     14.27783068	      6.45972405	      3.44574455	     -5.69269605	     -2.97085721	      2.69983943
      1.17366667	     -3.71620305	      0.31691147	     -4.07282574	      0.26194279	      1.06901955	      0.27667753	     23.92177929	     -4.51981417	     -7.73178437	    -70.64553380	      4.19097670	     -4.01843488	      7.08318882	     12.95421182	     -0.85626145	      0.46306806	    -19.95877639	     14.27229523	      6.52107975	      3.47605005	     -5.74136113	     -2.82034186	      2.53554238
      1.17783333	     -3.69299393	      0.18924830	     -4.03172662	      0.26743176	      1.07022188	      0.27663749	     24.31437672	     -4.33174678	     -7.93112977	    -69.99934250	      4.43297712	     -3.75347794	      7.10084339	     12.33706573	     -0.97355966	      0.45005816	    -19.40414769	     14.23502371	      6.57382111	      3.50491867	     -5.79336791	     -2.66559866	      2.39200744
      1.18200000	     -3.67418626	      0.06470772	     -3.97749154	      0.27291300	      1.07134202	      0.27658041	     24.69616508	     -4.15228544	     -8.14008694	    -69.30265810	      4.67050274	     -3.51168570	      7.12076413	     11.73468408	     -1.08634790	      0.44827570	    -18.86435857	     14.20320113	      6.62585610	      3.53312369	     -5.83829924	     -2.51386425	      2.24351384
      1.18616667	     -3.66563734	     -0.05632981	     -3.91142297	      0.27838133	      1.07237265	      0.27649880	     25.07433007	     -3.98132970	     -8.35805423	    -68.55755431	      4.90201608	     -3.29869437	      7.14427476	     11.15182936	     -1.19311251	      0.46303036	    -18.33444549	     14.17350065	      6.67430612	      3.56590558	     -5.87939658	     -2.36079139	      2.07571299
      1.19033333	     -3.66823645	     -0.18099611	     -3.83883580	      0.28384379	      1.07332357	      0.27642071	     25.44621494	     -3.80421828	     -8.57562452	    -67.75490884	      5.12261064	     -3.12988942	      7.16176956	     10.59346352	     -1.30783087	      0.46778050	    -17.82734004	     14.12775779	      6.73075627	      3.58600657	     -5.90534218	     -2.21904507	      1.95541870
      1.19450000	     -3.65404241	     -0.29064161	     -3.74626270	      0.28930354	      1.07420875	      0.27627357	     25.78697394	     -3.66419290	     -8.81570066	    -66.91598901	      5.34544693	     -2.95635551	      7.18793042	     10.01920988	     -1.39519096	      0.51840399	    -17.31691726	     14.13483035	      6.76225861	      3.62159031	     -5.95347362	     -2.05786528	      1.73418412
      1.19866667	     -3.66463796	     -0.40356902	     -3.65075897	      0.29475517	      1.07499506	      0.27614154	     26.13758513	     -3.51484505	     -9.04941085	    -66.02305014	      5.55219280	     -2.83073099	      7.21138845	      9.48560172	     -1.49216426	      0.55857269	    -16.83158983	     14.11941224	      6.79565986	      3.65351690	     -5.96949200	     -1.90776509	      1.56110227
      1.20283333	     -3.67313403	     -0.51084182	     -3.54739944	      0.30019604	      1.07570682	      0.27599484	     26.47121793	     -3.37521017	     -9.28435433	    -65.08410250	      5.75294798	     -2.72857075	      7.23483346	      8.95757484	     -1.58166314	      0.61217298	    -16.35887165	     14.11432253	      6.82670739	      3.68641712	     -5.99221218	     -1.76080722	      1.37369267
      1.20700000	     -3.71067791	     -0.62351405	     -3.43892749	      0.30562589	      1.07630093	      0.27585668	     26.81891832	     -3.22636183	     -9.51713990	    -64.09386719	      5.95315945	     -2.65586877	      7.24935726	      8.47932146	     -1.68329675	      0.64795647	    -15.91955748	     14.09774525	      6.87634830	      3.70542036	     -5.98279842	     -1.62407512	      1.24957382
      1.21116667	     -3.72417361	     -0.72812903	     -3.32303595	      0.31104477	      1.07684875	      0.27569250	     27.12647613	     -3.09566963	     -9.75423908	    -63.06322700	      6.14272093	     -2.59703681	      7.26382667	      7.98007067	     -1.77120575	      0.70949299	    -15.48855970	     14.11669913	      6.91045546	      3.72696797	     -6.00293006	     -1.47948547	      1.07313363
      1.21533333	     -3.73025412	     -0.81746601	     -3.20141353	      0.31645605	      1.07732550	      0.27551105	     27.41493236	     -2.98840584	     -9.99103158	    -61.99703242	      6.31128285	     -2.55940957	      7.28320762	      7.47398931	     -1.83868489	      0.80237842	    -15.05516113	     14.16288270	      6.91199838	      3.76113828	     -6.03348746	     -1.33224158	      0.81114456
      1.21950000	     -3.78315171	     -0.89914463	     -3.07901453	      0.32185963	      1.07763921	      0.27534647	     27.74150390	     -2.88282049	    -10.21433744	    -60.89118036	      6.48881402	     -2.53568685	      7.30139143	      7.03611309	     -1.90402135	      0.88902793	    -14.65567289	     14.19182074	      6.91498803	      3.79405596	     -6.00947718	     -1.20865500	      0.61096017
      1.22366667	     -3.82218765	     -0.98500852	     -2.95715536	      0.32725240	      1.07790842	      0.27518877	     28.03482617	     -2.77284085	    -10.43432040	    -59.73542514	      6.65569743	     -2.52624835	      7.31609407	      6.59275922	     -1.97584685	      0.96511335	    -14.27531645	     14.23783151	      6.93091055	      3.82206867	     -6.00047607	     -1.08348475	      0.43923136
      1.22783333	     -3.90722178	     -1.04982951	     -2.84903919	      0.33265242	      1.07798830	      0.27505975	     28.37433766	     -2.67662449	    -10.62719163	    -58.56057632	      6.84762771	     -2.52165316	      7.32241600	      6.20754086	     -2.03135729	      1.01396663	    -13.91354385	     14.28560184	      6.98583325	      3.83311383	     -5.94016012	     -0.98584474	      0.35751668
      1.23200000	     -3.96400559	     -1.12837918	     -2.71359648	      0.33801602	      1.07806429	      0.27490026	     28.65407818	     -2.57618935	    -10.83820867	    -57.31815039	      6.97580770	     -2.53300733	      7.33689960	      5.81039817	     -2.09490096	      1.13481732	    -13.58672003	     14.37164243	      6.95158122	      3.86351889	     -5.91835568	     -0.85935509	      0.05418989
      1.23616667	     -4.05643100	     -1.19432462	     -2.60173852	      0.34339751	      1.07798671	      0.27478658	     28.96427466	     -2.47649436	    -11.01792572	    -56.04915771	      7.15340166	     -2.51824974	      7.34382857	      5.46029288	     -2.15436121	      1.18777171	    -13.28295558	     14.44447627	      6.98028430	      3.87567895	     -5.85085661	     -0.76622382	     -0.03035206
      1.24033333	     -4.14724439	     -1.25706416	     -2.48755519	      0.34876559	      1.07784126	      0.27467244	     29.25605256	     -2.38125665	    -11.19244105	    -54.73803296	      7.30507544	     -2.51091952	      7.35018488	      5.11554682	     -2.20920343	      1.26457352	    -12.99211800	     14.54679472	      6.99338962	      3.88776900	     -5.78758719	     -0.66405430	     -0.16577550
